/* XPM */
static char *brick_wall_32x32_[] = {
/* columns rows colors chars-per-pixel */
"32 32 2 1 ",
"  c #BF360C",
". c #FFE0B2",
/* pixels */
"................................",
"................................",
"        ..                      ",
"        ..                      ",
"        ..                      ",
"        ..                      ",
"        ..                      ",
"        ..                      ",
"        ..                      ",
"        ..                      ",
"        ..                      ",
"        ..                      ",
"        ..                      ",
"        ..                      ",
"        ..                      ",
"        ..                      ",
"................................",
"................................",
"                      ..        ",
"                      ..        ",
"                      ..        ",
"                      ..        ",
"                      ..        ",
"                      ..        ",
"                      ..        ",
"                      ..        ",
"                      ..        ",
"                      ..        ",
"                      ..        ",
"                      ..        ",
"                      ..        ",
"                      ..        "
};
