/* XPM */
static char *collectible_32x32_[] = {
/* columns rows colors chars-per-pixel */
"32 32 4 1 ",
"  c None",
". c #FF1744",
"X c #FF5252",
"o c #66BB6A",
/* pixels */
"                                ",
"                                ",
"          ......                ",
"          ......                ",
"        ....XX....              ",
"        ....XX....              ",
"        ..XXXXXX..              ",
"        ..XXXXXX..              ",
"        oo..XXXX..oo            ",
"        oo..XXXX..oo            ",
"      oooooo....oooo            ",
"      oooooo....oooo            ",
"      oooooo  oo  oooo          ",
"      oooooo  oo  oooo          ",
"              oo                ",
"              oo                ",
"                oo              ",
"                oo              ",
"                oo              ",
"                oo              ",
"                oo              ",
"                oo              ",
"                oo              ",
"                oo              ",
"              oo                ",
"              oo                ",
"              oo                ",
"              oo                ",
"                                ",
"                                ",
"                                ",
"                                "
};
