/* XPM */
static char *exit_32x32_[] = {
/* columns rows colors chars-per-pixel */
"32 32 10 1 ",
"  c None",
". c black",
"X c #263238",
"o c #37474F",
"O c #546E7A",
"+ c #9E2703",
"@ c #BF360C",
"# c #D84315",
"$ c #E64A19",
"% c #607D8B",
/* pixels */
"                                ",
"                                ",
"                                ",
"                                ",
"                                ",
"                                ",
"      ....$$........$$....      ",
"      ....$$........$$....      ",
"      ..%%$$%%%%%%%%$$%%..      ",
"      ..%%$$%%%%%%%%$$%%..      ",
"      ..OO$$$$$$$$$$$$OO..      ",
"      ..OO$$$$$$$$$$$$OO..      ",
"      ..OO##OOOOOOOO##OO..      ",
"      ..OO##OOOOOOOO##OO..      ",
"      ..oo############oo..      ",
"      ..oo############oo..      ",
"      ..oo@@oooooooo@@oo..      ",
"      ..oo@@oooooooo@@oo..      ",
"      ..XX@@@@@@@@@@@@XX..      ",
"      ..XX@@@@@@@@@@@@XX..      ",
"      ..XX++XXXXXXXX++XX..      ",
"      ..XX++XXXXXXXX++XX..      ",
"      ..XX++++++++++++XX..      ",
"      ..XX++++++++++++XX..      ",
"      ....................      ",
"      ....................      ",
"                                ",
"                                ",
"                                ",
"                                ",
"                                ",
"                                "
};
