/* XPM */
static char *player_left_32x32_[] = {
/* columns rows colors chars-per-pixel */
"32 32 11 1 ",
"  c None",
". c black",
"X c #131A5E",
"o c #1A237E",
"O c #FFC107",
"+ c #FFD600",
"@ c #3F51B5",
"# c #FFAB91",
"$ c #FFCC80",
"% c #FFE0B2",
"& c white",
/* pixels */
"          OOOOOOOOOO            ",
"          OOOOOOOOOO            ",
"        OO%%OO%%%%OOOO          ",
"        OO%%OO%%%%OOOO          ",
"        %%..%%%%..%%OO          ",
"        %%..%%%%..%%OO          ",
"        ##%%%%%%%%##%%          ",
"        ##%%%%%%%%##%%          ",
"        %%%%....%%%%$$          ",
"        %%%%....%%%%$$          ",
"          %%%%%%%%$$            ",
"          %%%%%%%%$$            ",
"            $$$$$$              ",
"            $$$$$$              ",
"        @@@@@@@@@@@@@@          ",
"        @@@@@@@@@@@@@@          ",
"      @@&&&&&&&&&&&&@@@@        ",
"      @@&&&&&&&&&&&&@@@@        ",
"      &&@@@@@@@@@@@@&&&&        ",
"      &&@@@@@@@@@@@@&&&&        ",
"      @@&&&&&&&&&&&&@@@@        ",
"      @@&&&&&&&&&&&&@@@@        ",
"      %%oooo++oooooo%%%%        ",
"      %%oooo++oooooo%%%%        ",
"        XXXXXXoooooooo          ",
"        XXXXXXoooooooo          ",
"        XXXXXXoooooooo          ",
"        XXXXXXoooooooo          ",
"        ..XXXX....oooo          ",
"        ..XXXX....oooo          ",
"        ..............          ",
"        ..............          "
};
