/* XPM */
static char *_217bccd12e94c51d1812ba32e35814e8SbGLUmWEOnNLFo2[] = {
/* columns rows colors chars-per-pixel */
"16 16 2 1 ",
"  c #BF360C",
". c #FFE0B2",
/* pixels */
"................",
"    .           ",
"    .           ",
"    .           ",
"    .           ",
"    .           ",
"    .           ",
"    .           ",
"................",
"           .    ",
"           .    ",
"           .    ",
"           .    ",
"           .    ",
"           .    ",
"           .    "
};
