/* XPM */
static char *_2498e558b3a482dd868ad1ed6a0738970Uw0GOjw5yfuHfF[] = {
/* columns rows colors chars-per-pixel */
"16 16 4 1 ",
"  c None",
". c #FF1744",
"X c #FF5252",
"o c #66BB6A",
/* pixels */
"                ",
"     ...        ",
"    ..X..       ",
"    .XXX.       ",
"    o.XX.o      ",
"   ooo..oo      ",
"   ooo o oo     ",
"       o        ",
"        o       ",
"        o       ",
"        o       ",
"        o       ",
"       o        ",
"       o        ",
"                ",
"                "
};
