/* XPM */
static char *a4248c34a3c84ab3d6f2b7005b599e55Hs9Ad267EhWXTMjC[] = {
/* columns rows colors chars-per-pixel */
"13 22 11 1 ",
"  c None",
". c black",
"X c #131A5E",
"o c #1A237E",
"O c #FFC107",
"+ c #FFD600",
"@ c #3F51B5",
"# c #FFAB91",
"$ c #FFCC80",
"% c #FFE0B2",
"& c white",
/* pixels */
"             ",
"             ",
"    OOOOO    ",
"   O%O%%OO   ",
"   %.%%.%O   ",
"   #%%%%#%   ",
"   %%%%%%$   ",
"   %%..%%$   ",
"    %%%%$    ",
"     $$$     ",
"    @@@@@    ",
"   &&&&&@@   ",
"   @@@@&&&   ",
"   &&&@@@&   ",
"   @@&&&@@   ",
"   %@@@&&&   ",
"   %%@@@@@   ",
"   XX+oooo   ",
"   Xoooooo   ",
"   oooooXX   ",
"  .ooo .XXX  ",
"  ...  ...X  "
};
