/* XPM */
static char *eea29b3a7f5c497ac7bf4b4e583c9d62W0HG1nuhHq0zjE5R[] = {
/* columns rows colors chars-per-pixel */
"13 22 11 1 ",
"  c None",
". c black",
"X c #131A5E",
"o c #1A237E",
"O c #FFC107",
"+ c #FFD600",
"@ c #3F51B5",
"# c #FFAB91",
"$ c #FFCC80",
"% c #FFE0B2",
"& c white",
/* pixels */
"             ",
"             ",
"    OOOOO    ",
"   OO%%O%O   ",
"   O%.%%.%   ",
"   %#%%%%#   ",
"   $%%%%%%   ",
"   $%%..%%   ",
"    $%%%%    ",
"     $$$     ",
"    @@@@@    ",
"   @@&&&&&   ",
"   &&&@@@@   ",
"   &@@@&&&   ",
"   @@&&&@@   ",
"   &&&@@@%   ",
"   @@@@@%%   ",
"   oooo+XX   ",
"   ooooooX   ",
"   XXooooo   ",
"  XXX. ooo.  ",
"  X...  ...  "
};
