/* XPM */
static char *_d91e8a95c1b43c2af7b67b16561d74bdjY4F4nAFp4oCcuC[] = {
/* columns rows colors chars-per-pixel */
"13 22 11 1 ",
"  c None",
". c black",
"X c #131A5E",
"o c #1A237E",
"O c #FFC107",
"+ c #FFD600",
"@ c #3F51B5",
"# c #FFAB91",
"$ c #FFCC80",
"% c #FFE0B2",
"& c white",
/* pixels */
"             ",
"    OOOOO    ",
"   OO%%O%O   ",
"   O%.%%.%   ",
"   %#%%%%#   ",
"   $%%%%%%   ",
"   $%%..%%   ",
"    $%%%%    ",
"     $$$     ",
"    @@@@@    ",
"   @&&&&&&   ",
"  &&@@@@@@&  ",
"  @@&&&&&&@  ",
"  &&@@@@@@&  ",
"  @@&&&&&&@  ",
"  &&@@@@@@&  ",
"  %%ooo+oo%  ",
"   ooooXXX   ",
"   ooooXXX   ",
"   ooooXXX   ",
"   oo..XX.   ",
"   .......   "
};
