/* XPM */
static char *exit[] = {
/* columns rows colors chars-per-pixel */
"16 16 10 1 ",
"  c None",
". c black",
"X c #263238",
"o c #37474F",
"O c #546E7A",
"+ c #9E2703",
"@ c #BF360C",
"# c #D84315",
"$ c #E64A19",
"% c #607D8B",
/* pixels */
"                ",
"                ",
"                ",
"   ..$....$..   ",
"   .%$%%%%$%.   ",
"   .O$$$$$$O.   ",
"   .O#OOOO#O.   ",
"   .o######o.   ",
"   .o@oooo@o.   ",
"   .X@@@@@@X.   ",
"   .X+XXXX+X.   ",
"   .X++++++X.   ",
"   ..........   ",
"                ",
"                ",
"                "
};
