/* XPM */
static char *_d16c574550c4ec7f2602cc6d4e5f105IWhXO0lLHftnxUg6[] = {
/* columns rows colors chars-per-pixel */
"64 64 4 1 ",
"  c #43A047",
". c #607D8B",
"X c gray53",
"o c gray62",
/* pixels */
"                                                                ",
"                                                                ",
"                                                                ",
"                                                                ",
"                                                                ",
"                                                                ",
"                                                                ",
"                                                                ",
"        ................................................        ",
"        ................................................        ",
"        ................................................        ",
"        ................................................        ",
"        ....oooooooooooooooooooooooooooooooooooooooo....        ",
"        ....oooooooooooooooooooooooooooooooooooooooo....        ",
"        ....oooooooooooooooooooooooooooooooooooooooo....        ",
"        ....oooooooooooooooooooooooooooooooooooooooo....        ",
"        ....oooooooooooooooo........oooooooooooooooo....        ",
"        ....oooooooooooooooo........oooooooooooooooo....        ",
"        ....oooooooooooooooo........oooooooooooooooo....        ",
"        ....oooooooooooooooo........oooooooooooooooo....        ",
"        ....oooooooooooo....oooooooo....oooooooooooo....        ",
"        ....oooooooooooo....oooooooo....oooooooooooo....        ",
"        ....oooooooooooo....oooooooo....oooooooooooo....        ",
"        ....oooooooooooo....oooooooo....oooooooooooo....        ",
"        ....oooooooo........................oooooooo....        ",
"        ....oooooooo........................oooooooo....        ",
"        ....oooooooo........................oooooooo....        ",
"        ....oooooooo........................oooooooo....        ",
"        ....oooooooo........................oooooooo....        ",
"        ....oooooooo........................oooooooo....        ",
"        ....oooooooo........................oooooooo....        ",
"        ....oooooooo........................oooooooo....        ",
"        ....oooooooo........................oooooooo....        ",
"        ....oooooooo........................oooooooo....        ",
"        ....oooooooo........................oooooooo....        ",
"        ....oooooooo........................oooooooo....        ",
"        ....oooooooooooooooooooooooooooooooooooooooo....        ",
"        ....oooooooooooooooooooooooooooooooooooooooo....        ",
"        ....oooooooooooooooooooooooooooooooooooooooo....        ",
"        ....oooooooooooooooooooooooooooooooooooooooo....        ",
"        ....oooooooooooo................oooooooooooo....        ",
"        ....oooooooooooo................oooooooooooo....        ",
"        ....oooooooooooo................oooooooooooo....        ",
"        ....oooooooooooo................oooooooooooo....        ",
"        ....oooooooooooo....XXXXXXXX....oooooooooooo....        ",
"        ....oooooooooooo....XXXXXXXX....oooooooooooo....        ",
"        ....oooooooooooo....XXXXXXXX....oooooooooooo....        ",
"        ....oooooooooooo....XXXXXXXX....oooooooooooo....        ",
"        ....oooooooooooooooooooooooooooooooooooooooo....        ",
"        ....oooooooooooooooooooooooooooooooooooooooo....        ",
"        ....oooooooooooooooooooooooooooooooooooooooo....        ",
"        ....oooooooooooooooooooooooooooooooooooooooo....        ",
"        ................................................        ",
"        ................................................        ",
"        ................................................        ",
"        ................................................        ",
"                                                                ",
"                                                                ",
"                                                                ",
"                                                                ",
"                                                                ",
"                                                                ",
"                                                                ",
"                                                                "
};
