/* XPM */
static char *collectible_64x64_[] = {
/* columns rows colors chars-per-pixel */
"64 64 4 1 ",
"  c None",
". c #FF1744",
"X c #FF5252",
"o c #66BB6A",
/* pixels */
"                                                                ",
"                                                                ",
"                                                                ",
"                                                                ",
"                    ............                                ",
"                    ............                                ",
"                    ............                                ",
"                    ............                                ",
"                ........XXXX........                            ",
"                ........XXXX........                            ",
"                ........XXXX........                            ",
"                ........XXXX........                            ",
"                ....XXXXXXXXXXXX....                            ",
"                ....XXXXXXXXXXXX....                            ",
"                ....XXXXXXXXXXXX....                            ",
"                ....XXXXXXXXXXXX....                            ",
"                oooo....XXXXXXXX....oooo                        ",
"                oooo....XXXXXXXX....oooo                        ",
"                oooo....XXXXXXXX....oooo                        ",
"                oooo....XXXXXXXX....oooo                        ",
"            oooooooooooo........oooooooo                        ",
"            oooooooooooo........oooooooo                        ",
"            oooooooooooo........oooooooo                        ",
"            oooooooooooo........oooooooo                        ",
"            oooooooooooo    oooo    oooooooo                    ",
"            oooooooooooo    oooo    oooooooo                    ",
"            oooooooooooo    oooo    oooooooo                    ",
"            oooooooooooo    oooo    oooooooo                    ",
"                            oooo                                ",
"                            oooo                                ",
"                            oooo                                ",
"                            oooo                                ",
"                                oooo                            ",
"                                oooo                            ",
"                                oooo                            ",
"                                oooo                            ",
"                                oooo                            ",
"                                oooo                            ",
"                                oooo                            ",
"                                oooo                            ",
"                                oooo                            ",
"                                oooo                            ",
"                                oooo                            ",
"                                oooo                            ",
"                                oooo                            ",
"                                oooo                            ",
"                                oooo                            ",
"                                oooo                            ",
"                            oooo                                ",
"                            oooo                                ",
"                            oooo                                ",
"                            oooo                                ",
"                            oooo                                ",
"                            oooo                                ",
"                            oooo                                ",
"                            oooo                                ",
"                                                                ",
"                                                                ",
"                                                                ",
"                                                                ",
"                                                                ",
"                                                                ",
"                                                                ",
"                                                                "
};
