/* XPM */
static char *exit_64x64_[] = {
/* columns rows colors chars-per-pixel */
"64 64 10 1 ",
"  c #43A047",
". c black",
"X c #263238",
"o c #37474F",
"O c #546E7A",
"+ c #9E2703",
"@ c #BF360C",
"# c #D84315",
"$ c #E64A19",
"% c #607D8B",
/* pixels */
"                                                                ",
"                                                                ",
"                                                                ",
"                                                                ",
"                                                                ",
"                                                                ",
"                                                                ",
"                                                                ",
"                                                                ",
"                                                                ",
"                                                                ",
"                                                                ",
"            ........$$$$................$$$$........            ",
"            ........$$$$................$$$$........            ",
"            ........$$$$................$$$$........            ",
"            ........$$$$................$$$$........            ",
"            ....%%%%$$$$%%%%%%%%%%%%%%%%$$$$%%%%....            ",
"            ....%%%%$$$$%%%%%%%%%%%%%%%%$$$$%%%%....            ",
"            ....%%%%$$$$%%%%%%%%%%%%%%%%$$$$%%%%....            ",
"            ....%%%%$$$$%%%%%%%%%%%%%%%%$$$$%%%%....            ",
"            ....OOOO$$$$$$$$$$$$$$$$$$$$$$$$OOOO....            ",
"            ....OOOO$$$$$$$$$$$$$$$$$$$$$$$$OOOO....            ",
"            ....OOOO$$$$$$$$$$$$$$$$$$$$$$$$OOOO....            ",
"            ....OOOO$$$$$$$$$$$$$$$$$$$$$$$$OOOO....            ",
"            ....OOOO####OOOOOOOOOOOOOOOO####OOOO....            ",
"            ....OOOO####OOOOOOOOOOOOOOOO####OOOO....            ",
"            ....OOOO####OOOOOOOOOOOOOOOO####OOOO....            ",
"            ....OOOO####OOOOOOOOOOOOOOOO####OOOO....            ",
"            ....oooo########################oooo....            ",
"            ....oooo########################oooo....            ",
"            ....oooo########################oooo....            ",
"            ....oooo########################oooo....            ",
"            ....oooo@@@@oooooooooooooooo@@@@oooo....            ",
"            ....oooo@@@@oooooooooooooooo@@@@oooo....            ",
"            ....oooo@@@@oooooooooooooooo@@@@oooo....            ",
"            ....oooo@@@@oooooooooooooooo@@@@oooo....            ",
"            ....XXXX@@@@@@@@@@@@@@@@@@@@@@@@XXXX....            ",
"            ....XXXX@@@@@@@@@@@@@@@@@@@@@@@@XXXX....            ",
"            ....XXXX@@@@@@@@@@@@@@@@@@@@@@@@XXXX....            ",
"            ....XXXX@@@@@@@@@@@@@@@@@@@@@@@@XXXX....            ",
"            ....XXXX++++XXXXXXXXXXXXXXXX++++XXXX....            ",
"            ....XXXX++++XXXXXXXXXXXXXXXX++++XXXX....            ",
"            ....XXXX++++XXXXXXXXXXXXXXXX++++XXXX....            ",
"            ....XXXX++++XXXXXXXXXXXXXXXX++++XXXX....            ",
"            ....XXXX++++++++++++++++++++++++XXXX....            ",
"            ....XXXX++++++++++++++++++++++++XXXX....            ",
"            ....XXXX++++++++++++++++++++++++XXXX....            ",
"            ....XXXX++++++++++++++++++++++++XXXX....            ",
"            ........................................            ",
"            ........................................            ",
"            ........................................            ",
"            ........................................            ",
"                                                                ",
"                                                                ",
"                                                                ",
"                                                                ",
"                                                                ",
"                                                                ",
"                                                                ",
"                                                                ",
"                                                                ",
"                                                                ",
"                                                                ",
"                                                                "
};
