/* XPM */
static char *player_right_64x64_[] = {
/* columns rows colors chars-per-pixel */
"64 64 11 1 ",
"  c #43A047",
". c black",
"X c #131A5E",
"o c #1A237E",
"O c #FFC107",
"+ c #FFD600",
"@ c #3F51B5",
"# c #FFAB91",
"$ c #FFCC80",
"% c #FFE0B2",
"& c white",
/* pixels */
"                        OOOOOOOOOOOOOOOOOOOO                    ",
"                        OOOOOOOOOOOOOOOOOOOO                    ",
"                        OOOOOOOOOOOOOOOOOOOO                    ",
"                        OOOOOOOOOOOOOOOOOOOO                    ",
"                    OOOOOOOO%%%%%%%%OOOO%%%%OOOO                ",
"                    OOOOOOOO%%%%%%%%OOOO%%%%OOOO                ",
"                    OOOOOOOO%%%%%%%%OOOO%%%%OOOO                ",
"                    OOOOOOOO%%%%%%%%OOOO%%%%OOOO                ",
"                    OOOO%%%%....%%%%%%%%....%%%%                ",
"                    OOOO%%%%....%%%%%%%%....%%%%                ",
"                    OOOO%%%%....%%%%%%%%....%%%%                ",
"                    OOOO%%%%....%%%%%%%%....%%%%                ",
"                    %%%%####%%%%%%%%%%%%%%%%####                ",
"                    %%%%####%%%%%%%%%%%%%%%%####                ",
"                    %%%%####%%%%%%%%%%%%%%%%####                ",
"                    %%%%####%%%%%%%%%%%%%%%%####                ",
"                    $$$$%%%%%%%%........%%%%%%%%                ",
"                    $$$$%%%%%%%%........%%%%%%%%                ",
"                    $$$$%%%%%%%%........%%%%%%%%                ",
"                    $$$$%%%%%%%%........%%%%%%%%                ",
"                        $$$$%%%%%%%%%%%%%%%%                    ",
"                        $$$$%%%%%%%%%%%%%%%%                    ",
"                        $$$$%%%%%%%%%%%%%%%%                    ",
"                        $$$$%%%%%%%%%%%%%%%%                    ",
"                            $$$$$$$$$$$$                        ",
"                            $$$$$$$$$$$$                        ",
"                            $$$$$$$$$$$$                        ",
"                            $$$$$$$$$$$$                        ",
"                    @@@@@@@@@@@@@@@@@@@@@@@@@@@@                ",
"                    @@@@@@@@@@@@@@@@@@@@@@@@@@@@                ",
"                    @@@@@@@@@@@@@@@@@@@@@@@@@@@@                ",
"                    @@@@@@@@@@@@@@@@@@@@@@@@@@@@                ",
"                @@@@@@@@&&&&&&&&&&&&&&&&&&&&&&&&@@@@            ",
"                @@@@@@@@&&&&&&&&&&&&&&&&&&&&&&&&@@@@            ",
"                @@@@@@@@&&&&&&&&&&&&&&&&&&&&&&&&@@@@            ",
"                @@@@@@@@&&&&&&&&&&&&&&&&&&&&&&&&@@@@            ",
"                &&&&&&&&@@@@@@@@@@@@@@@@@@@@@@@@&&&&            ",
"                &&&&&&&&@@@@@@@@@@@@@@@@@@@@@@@@&&&&            ",
"                &&&&&&&&@@@@@@@@@@@@@@@@@@@@@@@@&&&&            ",
"                &&&&&&&&@@@@@@@@@@@@@@@@@@@@@@@@&&&&            ",
"                @@@@@@@@&&&&&&&&&&&&&&&&&&&&&&&&@@@@            ",
"                @@@@@@@@&&&&&&&&&&&&&&&&&&&&&&&&@@@@            ",
"                @@@@@@@@&&&&&&&&&&&&&&&&&&&&&&&&@@@@            ",
"                @@@@@@@@&&&&&&&&&&&&&&&&&&&&&&&&@@@@            ",
"                %%%%%%%%oooooooooooo++++oooooooo%%%%            ",
"                %%%%%%%%oooooooooooo++++oooooooo%%%%            ",
"                %%%%%%%%oooooooooooo++++oooooooo%%%%            ",
"                %%%%%%%%oooooooooooo++++oooooooo%%%%            ",
"                    ooooooooooooooooXXXXXXXXXXXX                ",
"                    ooooooooooooooooXXXXXXXXXXXX                ",
"                    ooooooooooooooooXXXXXXXXXXXX                ",
"                    ooooooooooooooooXXXXXXXXXXXX                ",
"                    ooooooooooooooooXXXXXXXXXXXX                ",
"                    ooooooooooooooooXXXXXXXXXXXX                ",
"                    ooooooooooooooooXXXXXXXXXXXX                ",
"                    ooooooooooooooooXXXXXXXXXXXX                ",
"                    oooooooo........XXXXXXXX....                ",
"                    oooooooo........XXXXXXXX....                ",
"                    oooooooo........XXXXXXXX....                ",
"                    oooooooo........XXXXXXXX....                ",
"                    ............................                ",
"                    ............................                ",
"                    ............................                ",
"                    ............................                "
};
